<?xml version="1.0" standalone="no"?>
<!DOCTYPE svg PUBLIC "-//W3C//DTD SVG 20010904//EN"
 "http://www.w3.org/TR/2001/REC-SVG-20010904/DTD/svg10.dtd">
<svg version="1.0" xmlns="http://www.w3.org/2000/svg"
 width="500.000000pt" height="500.000000pt" viewBox="0 0 500.000000 500.000000"
 preserveAspectRatio="xMidYMid meet">

<g transform="translate(0.000000,500.000000) scale(0.100000,-0.100000)"
fill="#000000" stroke="none">
<path d="M760 2500 l0 -480 1770 0 1770 0 0 480 0 480 -1770 0 -1770 0 0 -480z
m3520 0 l0 -450 -1750 0 -1750 0 0 450 0 450 1750 0 1750 0 0 -450z"/>
<path d="M850 2500 l0 -390 825 0 825 0 0 390 0 390 -825 0 -825 0 0 -390z
m216 87 c60 -141 65 -157 49 -157 -9 0 -20 11 -25 25 -8 22 -15 25 -60 25 -44
0 -52 -3 -62 -25 -6 -14 -17 -25 -25 -25 -7 0 -13 2 -13 4 0 5 80 198 87 209
10 17 26 -1 49 -56z m204 -31 c0 -87 -2 -96 -22 -110 -29 -21 -78 -21 -78 -1
0 10 10 15 30 15 40 0 50 23 50 114 0 44 4 76 10 76 6 0 10 -38 10 -94z m220
79 c0 -11 -12 -15 -50 -15 l-50 0 0 -35 c0 -35 0 -35 45 -35 25 0 45 -4 45
-10 0 -5 -20 -10 -45 -10 -45 0 -45 0 -45 -34 0 -35 0 -35 52 -38 30 -2 53 -8
56 -15 3 -10 -15 -13 -67 -13 l-71 0 0 110 0 110 65 0 c51 0 65 -3 65 -15z
m182 5 c20 -6 46 -22 58 -37 22 -28 27 -91 10 -124 -16 -29 -64 -49 -120 -49
l-50 0 0 110 0 110 33 0 c17 0 49 -5 69 -10z m289 -16 c25 -23 24 -72 -2 -100
l-21 -23 21 -29 c25 -35 26 -42 7 -42 -7 0 -25 18 -40 41 -20 30 -33 39 -49
37 -18 -2 -23 -11 -25 -40 -2 -21 -7 -38 -13 -38 -5 0 -9 49 -9 111 l0 112 56
-6 c32 -3 64 -13 75 -23z m229 11 c0 -11 -12 -15 -50 -15 l-50 0 0 -35 c0 -35
0 -35 45 -35 25 0 45 -4 45 -10 0 -5 -20 -10 -45 -10 -45 0 -45 0 -45 -35 l0
-35 50 0 c38 0 50 -4 50 -15 0 -12 -14 -15 -65 -15 l-65 0 0 110 0 110 65 0
c51 0 65 -3 65 -15z m210 0 c0 -9 -22 -49 -50 -90 -27 -41 -50 -76 -50 -79 0
-3 23 -6 52 -8 30 -2 53 -8 56 -15 3 -10 -17 -13 -78 -13 -96 0 -95 -6 -20
105 27 41 50 77 50 80 0 3 -22 5 -50 5 -38 0 -50 4 -50 15 0 12 14 15 70 15
56 0 70 -3 70 -15z"/>
<path d="M1011 2562 c-8 -20 -16 -43 -18 -49 -4 -9 6 -13 29 -13 46 0 49 5 31
48 -22 54 -28 56 -42 14z"/>
<path d="M1600 2540 l0 -80 40 0 c27 0 47 7 60 20 51 51 10 140 -66 140 l-34
0 0 -80z"/>
<path d="M1850 2580 c0 -47 15 -57 63 -43 22 6 33 16 35 31 5 34 -16 52 -59
52 -39 0 -39 0 -39 -40z"/>
<path d="M2540 2540 l0 -110 75 0 c73 0 75 1 75 25 0 23 -4 25 -45 25 -32 0
-45 4 -45 14 0 10 13 16 38 18 30 2 38 7 40 26 3 20 -1 22 -37 22 -34 0 -41 3
-41 20 0 17 7 20 46 20 41 0 45 2 42 23 -3 20 -9 22 -75 25 l-73 3 0 -111z"/>
<path d="M2742 2634 c-15 -10 -22 -25 -22 -49 0 -37 21 -58 73 -70 15 -4 27
-13 27 -20 0 -23 -20 -28 -39 -11 -18 17 -71 22 -71 7 0 -4 9 -20 21 -35 17
-22 28 -26 70 -26 107 0 122 98 20 129 -43 12 -57 41 -21 41 11 0 20 -4 20
-10 0 -5 14 -10 30 -10 38 0 39 21 4 49 -32 25 -81 27 -112 5z"/>
<path d="M2980 2643 c-73 -27 -91 -129 -33 -187 36 -37 109 -37 152 0 60 50
24 89 -38 43 -35 -26 -68 -18 -82 18 -19 52 47 99 81 58 15 -18 70 -20 70 -2
-1 17 -31 53 -57 66 -23 11 -67 13 -93 4z"/>
<path d="M3234 2638 c-8 -11 -84 -199 -84 -205 0 -2 16 -3 35 -3 24 0 35 5 35
15 0 11 11 15 40 15 27 0 43 -5 46 -15 4 -9 19 -15 39 -15 l33 0 -42 108 c-37
95 -45 107 -68 110 -14 2 -30 -3 -34 -10z m45 -115 c1 -7 -8 -13 -18 -13 -18
0 -19 3 -9 32 10 28 12 30 19 12 4 -10 8 -25 8 -31z"/>
<path d="M3454 2641 c-56 -24 -80 -101 -50 -160 14 -26 53 -51 81 -51 7 0 27
-13 43 -30 39 -39 82 -41 82 -5 0 18 -5 25 -19 25 -26 0 -37 18 -16 26 9 4 22
19 30 35 40 76 -3 158 -85 165 -25 2 -55 0 -66 -5z m90 -67 c9 -8 16 -24 16
-35 0 -23 -34 -59 -55 -59 -20 0 -55 36 -55 57 0 44 63 69 94 37z"/>
<path d="M3660 2562 c0 -80 2 -91 23 -110 33 -31 105 -31 135 1 19 20 22 35
22 111 l0 87 -27 -3 c-27 -3 -28 -5 -31 -75 -2 -47 -8 -75 -17 -83 -28 -23
-44 5 -47 83 -3 70 -4 72 -30 75 l-28 3 0 -89z"/>
<path d="M3890 2540 l0 -110 75 0 c73 0 75 1 75 25 0 23 -4 25 -45 25 -32 0
-45 4 -45 14 0 10 13 16 38 18 30 2 38 7 40 26 3 20 -1 22 -37 22 -34 0 -41 3
-41 20 0 17 7 20 46 20 41 0 45 2 42 23 -3 20 -9 22 -75 25 l-73 3 0 -111z"/>
<path d="M4092 2634 c-15 -10 -22 -25 -22 -49 0 -37 21 -58 73 -70 15 -4 27
-13 27 -20 0 -23 -20 -28 -39 -11 -18 17 -71 22 -71 7 0 -4 9 -20 21 -35 17
-22 28 -26 70 -26 107 0 122 98 20 129 -43 12 -57 41 -21 41 11 0 20 -4 20
-10 0 -5 14 -10 30 -10 38 0 39 21 4 49 -32 25 -81 27 -112 5z"/>
</g>
</svg>
